<svg width="18" height="26" viewBox="0 0 18 26" fill="none" xmlns="http://www.w3.org/2000/svg">
<path d="M14.2829 0.110485C14.4419 0.202685 14.565 0.346094 14.632 0.517284C14.699 0.688474 14.7059 0.877325 14.6517 1.05299L11.7251 10.5625H17.125C17.2837 10.5624 17.4389 10.6088 17.5715 10.696C17.7041 10.7831 17.8083 10.9072 17.8712 11.0529C17.9342 11.1986 17.953 11.3595 17.9255 11.5158C17.898 11.6721 17.8254 11.8169 17.7165 11.9324L4.71649 25.7449C4.5907 25.8786 4.42332 25.9658 4.24162 25.9923C4.05992 26.0187 3.87462 25.9828 3.71593 25.8905C3.55723 25.7981 3.43449 25.6548 3.36772 25.4837C3.30095 25.3127 3.29408 25.1241 3.34824 24.9486L6.27486 15.4375H0.874989C0.716299 15.4375 0.561065 15.3911 0.428448 15.304C0.295832 15.2168 0.191639 15.0928 0.128732 14.9471C0.0658248 14.8014 0.0469577 14.6405 0.0744593 14.4842C0.101961 14.3279 0.174627 14.1831 0.283488 14.0676L13.2835 0.25511C13.4091 0.121534 13.5762 0.0343844 13.7577 0.0078318C13.9391 -0.0187208 14.1242 0.0168852 14.2829 0.10886V0.110485Z" fill="black"/>
</svg>
